<?xml version="1.0" encoding="utf-8"?><!DOCTYPE svg PUBLIC "-//W3C//DTD SVG 1.1//EN" "http://www.w3.org/Graphics/SVG/1.1/DTD/svg11.dtd"><svg xmlns="http://www.w3.org/2000/svg" xmlns:xlink="http://www.w3.org/1999/xlink" viewBox="0 0 600 400"><defs>
<style>
  .a, .c {
    fill: #333
  }

  .b {
    fill: #b3b3b3
  }

  .c {
    stroke: #b3b3b3;
    stroke-linejoin: round;
    stroke-width: 16px
  }
</style>
</defs><title>Rounded Polygon Corners</title>
<polygon class="a" points="100 255 151 343 49 343 100 255"/>
<polygon class="a" points="500 55 551 143 449 143 500 55"/>
<polygon class="a" points="100 39 165 151 35 151 100 39"/>
<path class="a" d="M306.9,50.9,358,139a8,8,0,0,1-6.9,12H248.9a8,8,0,0,1-6.9-12l51.1-88.1A8,8,0,0,1,306.9,50.9Z"/>
<path class="b" d="M500,54.9,551.1,143H448.9L500,54.9M500,39,435,151H565L500,39Z"/>
<polygon class="c" points="300 255 351 343 249 343 300 255"/></svg>
