<svg id="Layer_2" data-name="Layer 2" xmlns="http://www.w3.org/2000/svg" viewBox="0 0 380 100">
  <defs>
    <style>
      .cls-1 {
        fill: none;
        stroke: #000;
        stroke-linecap: round;
        stroke-linejoin: round;
        stroke-width: 4px;
      }
    </style>
  </defs>
  <title>design-two</title>
  <polyline id="n" class="cls-1" points="310 87 310 13 366 87 366 13"/>
  <polyline id="ga" class="cls-1" points="264 53 295 53 295 87"/>
  <path id="g" class="cls-1" d="M293,36c-.9-8.4-8.1-25-30.4-25S228,29.6,228,50s11.9,39,34.4,39S295,73.7,295,53"/>
  <line id="i" class="cls-1" x1="213" y1="13" x2="213" y2="87"/>
  <path id="s" class="cls-1" d="M197,33c0-12.2-7.8-22-26-22s-25.6,9.1-25.6,18.1c0,29.3,52.4,10.4,52.4,40.3C197.8,84.6,181.8,89,171,89s-28-3-28-26"/>
  <line id="ea" class="cls-1" x1="85" y1="48" x2="132" y2="48"/>
  <polyline id="e" class="cls-1" points="134 13 85 13 85 87 135 87"/>
  <path id="d" class="cls-1" d="M13,13H41c19.9,0,31,13.4,31,37,0,25.2-15.7,37-31,37H13Z"/>
</svg>
