<?xml version="1.0" encoding="utf-8"?>
<?xml-stylesheet type="text/css" href="style.css"?>
<!DOCTYPE svg PUBLIC "-//W3C//DTD SVG 1.1//EN" "http://www.w3.org/Graphics/SVG/1.1/DTD/svg11.dtd">
<svg id="triangle" xmlns="http://www.w3.org/2000/svg" viewBox="0 0 100 100">
<polygon id="draw" points="94,88 6,88 50,12 "/>
<polygon id="first" points="49,96 1,88 49,80 97,88"/>
<g id="static">
<polygon points="59,68 81,65 95,68 84,71"/>
<polygon points="44,59 76,56 99,59 79,62"/>
<polygon points="78,29 58,26 52,29 61,31"/>
<polygon points="14,29 42,26 51,29 37,34"/>
<polygon points="8,59 25,55 38,59 21,63"/>
<polygon points="48,68 19,65 1,68 16,70"/></g></svg>
