<?xml version="1.0" encoding="utf-8"?><?xml-stylesheet type="text/css" href="../css/master.css"?><!DOCTYPE svg PUBLIC "-//W3C//DTD SVG 1.1//EN" "http://www.w3.org/Graphics/SVG/1.1/DTD/svg11.dtd"><svg xmlns="http://www.w3.org/2000/svg" viewBox="0 0 1348 222"><defs><style>*{fill:#595959}</style></defs><title>Daniel Blake Design Logotype</title><path d="M229.8,86.4V96.9a35.4,35.4,0,0,0-26.2-11.6,35.9,35.9,0,0,0,0,71.8,35.4,35.4,0,0,0,26.2-11.6V156h10V86.4Zm-26.2,60.7a25.9,25.9,0,1,1,25.6-25.9A25.8,25.8,0,0,1,203.6,147.1Z"/><path d="M710.8,86.4V96.9a35.4,35.4,0,0,0-26.2-11.6,35.9,35.9,0,0,0,0,71.8,35.4,35.4,0,0,0,26.2-11.6V156h10V86.4Zm-26.2,60.7a25.9,25.9,0,1,1,25.6-25.9A25.8,25.8,0,0,1,684.6,147.1Z"/><path d="M394.2,157.5A36.1,36.1,0,0,1,358,121.6c0-20.1,15.9-35.9,36.2-35.9s35.1,16.2,35.1,35.4v5H368.4a26.3,26.3,0,0,0,48,9.4l8.4,5.4A36.1,36.1,0,0,1,394.2,157.5ZM368.6,116h50.2c-2.4-11.5-12.7-20.4-24.6-20.4S371,104.1,368.6,116Z"/><path d="M830.2,157.5A36.1,36.1,0,0,1,794,121.6c0-20.1,15.9-35.9,36.2-35.9s35.1,16.2,35.1,35.4v5H804.4a26.3,26.3,0,0,0,48,9.4l8.4,5.4A36.1,36.1,0,0,1,830.2,157.5ZM804.6,116h50.2c-2.4-11.5-12.7-20.4-24.6-20.4S807,104.1,804.6,116Z"/><path d="M1071.7,157.5a36.1,36.1,0,0,1-36.2-35.9c0-20.1,15.9-35.9,36.2-35.9s35.1,16.2,35.1,35.4v5h-60.9a26.3,26.3,0,0,0,48,9.4l8.4,5.4A36.1,36.1,0,0,1,1071.7,157.5ZM1046.1,116h50.2c-2.4-11.5-12.7-20.4-24.6-20.4S1048.5,104.1,1046.1,116Z"/><rect x="335" y="86.4" width="10" height="69.64"/><rect x="335" y="56" width="10" height="13.93"/><rect x="1173" y="86.4" width="10" height="69.64"/><rect x="1173" y="56" width="10" height="13.93"/><rect x="442" y="56" width="10" height="100"/><rect x="627" y="56" width="10" height="100"/><path d="M287.5,85.3A34.3,34.3,0,0,0,263,95.6V86.4H253V156h10V120.1a24.5,24.5,0,1,1,49.1,0V156h10V120.1A34.7,34.7,0,0,0,287.5,85.3Z"/><path d="M1313.5,85.3A34.3,34.3,0,0,0,1289,95.6V86.4h-10V156h10V120.1a24.5,24.5,0,1,1,49.1,0V156h10V120.1A34.7,34.7,0,0,0,1313.5,85.3Z"/><path d="M1136.3,157.1c-11.8,0-22-6.8-25-16.6l9.6-2.9c1.7,5.5,8.2,9.5,15.5,9.5,9.2,0,15.9-5.2,15.9-12.3s-4.3-8.6-15-11.4c-9-2.4-21.2-5.7-21.2-19.5,0-10.3,9.6-18.6,21.4-18.6,8.5,0,16.2,4.4,19.6,11.1l-8.9,4.5c-1.7-3.4-6-5.6-10.7-5.6-6.2,0-11.4,4-11.4,8.6s4,7.2,13.8,9.8,22.4,6,22.4,21.1C1162.1,147.5,1151,157.1,1136.3,157.1Z"/><path d="M109.9,156.3H72l.3-100.5h37.6c27.7,0,49.4,22.1,49.4,50.3S137.6,156.3,109.9,156.3ZM82,146.3h27.9c22.1,0,39.4-17.7,39.4-40.3S132,65.7,109.9,65.7H82.3Z"/><path d="M976.9,156.3H939l.3-100.5h37.6c27.7,0,49.4,22.1,49.4,50.3S1004.6,156.3,976.9,156.3Zm-27.9-10h27.9c22.1,0,39.4-17.7,39.4-40.3S999,65.7,976.9,65.7H949.3Z"/><path d="M600.9,103a26.7,26.7,0,0,0-17-47.3H536V156.3h50.5A28.5,28.5,0,0,0,600.9,103Zm-17-37.3a16.7,16.7,0,1,1,0,33.5H546V65.7Zm2.7,80.5H546V109.2h40.5a18.5,18.5,0,1,1,0,37.1Z"/><path d="M1256.3,86.4V96.8a35,35,0,0,0-25.9-11.5c-19.5,0-35.4,16.1-35.4,35.9s15.9,35.9,35.4,35.9a35,35,0,0,0,25.9-11.5v9c0,12.8-11.3,22.9-25.6,22.9-9.4,0-18.1-4.6-22.6-11.9l-8.5,5.2c6.3,10.3,18.2,16.7,31.1,16.7,20,0,35.6-14.4,35.6-32.9V86.4Zm-25.9,60.7c-14,0-25.4-11.6-25.4-25.9s11.4-25.9,25.4-25.9,25.4,11.6,25.4,25.9S1244.3,147.1,1230.4,147.1Z"/><polygon points="763.1 111.6 793.9 86.2 778.9 86.2 743.5 115.4 743.5 56 734 56 734 156 743.5 156 743.5 127.6 755.7 117.6 787.2 156 799.5 156 763.1 111.6"/></svg>
