<?xml version="1.0" encoding="utf-8"?>
<!-- Generator: Adobe Illustrator 18.1.1, SVG Export Plug-In . SVG Version: 6.00 Build 0)  -->
<!DOCTYPE svg PUBLIC "-//W3C//DTD SVG 1.1//EN" "http://www.w3.org/Graphics/SVG/1.1/DTD/svg11.dtd">
<svg version="1.1" id="Layer_1" xmlns="http://www.w3.org/2000/svg" xmlns:xlink="http://www.w3.org/1999/xlink" x="0px" y="0px"
	 viewBox="0 0 500 500" style="enable-background:new 0 0 500 500;" xml:space="preserve">
<g>
	<path style="fill:#F2F0E5;" d="M202.34,250c0,0,0.01-13.48,6.93-20.4c5.34-5.34,5.34-13.99,0-19.33c-5.34-5.34-13.99-5.34-19.33,0
		c-6.93,6.93-20.4,6.93-20.4,6.93s-13.47,0-20.4-6.93c-5.34-5.34-13.99-5.34-19.33,0c-5.34,5.34-5.34,13.99,0,19.33
		c6.92,6.92,6.93,20.4,6.93,20.4s-0.01,13.48-6.93,20.4c-5.34,5.34-5.34,13.99,0,19.33c5.34,5.34,13.99,5.34,19.33,0
		c6.93-6.93,20.4-6.93,20.4-6.93s13.47,0,20.4,6.93c5.34,5.34,13.99,5.34,19.33,0c5.34-5.34,5.34-13.99,0-19.33
		C202.34,263.48,202.34,250,202.34,250z M169.54,277.33c0,0-13.48-0.01-20.4-6.93c-6.93-6.93-6.93-20.4-6.93-20.4s0-13.47,6.93-20.4
		c6.92-6.92,20.4-6.93,20.4-6.93s13.48,0.01,20.4,6.93c6.93,6.93,6.93,20.4,6.93,20.4s0,13.47-6.93,20.4
		C183.02,277.33,169.54,277.33,169.54,277.33z"/>
	<g>
		<rect x="278.41" y="227.53" style="fill:#F2F0E5;" width="11.51" height="44.94"/>
		<path style="fill:#F2F0E5;" d="M235.14,239.04h17.54c6.04,0,10.96,4.92,10.96,10.96c0,6.04-4.92,10.96-10.96,10.96h-17.54v11.51
			h17.54c12.41,0,22.47-10.06,22.47-22.47s-10.06-22.47-22.47-22.47h-17.54L235.14,239.04z"/>
		<path style="fill:#F2F0E5;" d="M333.2,227.53h-17.54c-12.41,0-22.47,10.06-22.47,22.47s10.06,22.47,22.47,22.47h17.54v-11.51
			h-17.54c-6.04,0-10.96-4.92-10.96-10.96c0-6.04,4.92-10.96,10.96-10.96h17.54L333.2,227.53z"/>
		<path style="fill:#F2F0E5;" d="M375.81,227.53h-18.36c-12.41,0-22.47,10.06-22.47,22.47s10.06,22.47,22.47,22.47h18.36v-11.51
			h-18.36c-6.04,0-10.96-4.92-10.96-10.96c0-6.04,4.92-10.96,10.96-10.96h18.36L375.81,227.53z"/>
		<path style="fill:#F2F0E5;" d="M357.74,255.18c-2.86,0-5.18-2.32-5.18-5.18c0-2.86,2.32-5.18,5.18-5.18h17.75v10.36H357.74z"/>
	</g>
</g>
</svg>
