<?xml version="1.0" encoding="utf-8"?>
<!-- Generator: Adobe Illustrator 19.1.0, SVG Export Plug-In . SVG Version: 6.00 Build 0)  -->
<!DOCTYPE svg PUBLIC "-//W3C//DTD SVG 1.1//EN" "http://www.w3.org/Graphics/SVG/1.1/DTD/svg11.dtd">
<svg version="1.1" id="imac" xmlns="http://www.w3.org/2000/svg" xmlns:xlink="http://www.w3.org/1999/xlink" x="0px" y="0px"
	 viewBox="596 -200 500 500" style="enable-background:new 596 -200 500 500;" xml:space="preserve">
<style type="text/css">
	.st0{fill:#E6E7E8;}
	.st1{opacity:0.4;clip-path:url(#SVGID_2_);fill:#020000;enable-background:new    ;}
	.st2{opacity:0.4;clip-path:url(#SVGID_4_);fill:#020000;enable-background:new    ;}
	.st3{clip-path:url(#SVGID_6_);}
	.st4{fill:#302E2F;}
	.st5{clip-path:url(#SVGID_9_);}
	.st6{clip-path:url(#SVGID_10_);fill:#F2F0E5;}
	.st7{opacity:0.2;clip-path:url(#SVGID_10_);fill:#FFFFFF;enable-background:new    ;}
</style>
<g>
	<g>
		<g>
			<path id="base" class="st0" d="M885.5,164c0,0,0.9,38.8,5.8,40.3c4.3,1.3,12.7,3.8,14.5,4.3c0.2,0.1,0.4,0.3,0.3,0.5
				c-0.1,0.4-0.4,1-1.3,1H786.8c-0.8,0-1.1-0.6-1.3-1c-0.1-0.2,0-0.5,0.3-0.5c1.9-0.5,10.2-3,14.5-4.3c4.9-1.5,5.8-40.3,5.8-40.3
				H885.5z"/>
		</g>
		<g>
			<defs>
				<path id="SVGID_1_" d="M885.5,164c0,0,0.9,38.8,5.8,40.3c4.3,1.3,12.7,3.8,14.5,4.3c0.2,0.1,0.4,0.3,0.3,0.5
					c-0.1,0.4-0.4,1-1.3,1H786.8c-0.8,0-1.1-0.6-1.3-1c-0.1-0.2,0-0.5,0.3-0.5c1.9-0.5,10.2-3,14.5-4.3c4.9-1.5,5.8-40.3,5.8-40.3
					H885.5z"/>
			</defs>
			<clipPath id="SVGID_2_">
				<use xlink:href="#SVGID_1_"  style="overflow:visible;"/>
			</clipPath>
			<rect id="shadow" x="785" y="209.1" class="st1" width="121.8" height="1.6"/>
		</g>
		<g>
			<defs>
				<path id="SVGID_3_" d="M885.5,164c0,0,0.9,38.8,5.8,40.3c4.3,1.3,12.7,3.8,14.5,4.3c0.2,0.1,0.4,0.3,0.3,0.5
					c-0.1,0.4-0.4,1-1.3,1H786.8c-0.8,0-1.1-0.6-1.3-1c-0.1-0.2,0-0.5,0.3-0.5c1.9-0.5,10.2-3,14.5-4.3c4.9-1.5,5.8-40.3,5.8-40.3
					H885.5z"/>
			</defs>
			<clipPath id="SVGID_4_">
				<use xlink:href="#SVGID_3_"  style="overflow:visible;"/>
			</clipPath>
			<rect id="shadow_1_" x="802" y="164.4" class="st2" width="86.8" height="9.5"/>
		</g>
	</g>
	<g>
		<g>
			<path id="body" class="st0" d="M1035.3,164.5H656.7c-6,0-10.7-4.8-10.7-10.7V-99.5c0-6,4.8-10.7,10.7-10.7h378.5
				c6,0,10.7,4.8,10.7,10.7v253.2C1046,159.7,1041.2,164.5,1035.3,164.5z"/>
		</g>
		<g id="imac_1_">
			<defs>
				<path id="SVGID_5_" d="M1035.3,164.5H656.7c-6,0-10.7-4.8-10.7-10.7V-99.5c0-6,4.8-10.7,10.7-10.7h378.5c6,0,10.7,4.8,10.7,10.7
					v253.2C1046,159.7,1041.2,164.5,1035.3,164.5z"/>
			</defs>
			<clipPath id="SVGID_6_">
				<use xlink:href="#SVGID_5_"  style="overflow:visible;"/>
			</clipPath>
			<g class="st3">
				<g>
					<rect id="display" x="642.4" y="-112.6" class="st4" width="408.5" height="240.9"/>
				</g>
				<g>
					<defs>
						<rect id="SVGID_7_" x="642.4" y="-112.6" width="408.5" height="240.9"/>
					</defs>
					<defs>
						<rect id="SVGID_8_" x="642.4" y="-112.6" width="408.5" height="240.9"/>
					</defs>
					<clipPath id="SVGID_9_">
						<use xlink:href="#SVGID_7_"  style="overflow:visible;"/>
					</clipPath>
					<clipPath id="SVGID_10_" class="st5">
						<use xlink:href="#SVGID_8_"  style="overflow:visible;"/>
					</clipPath>
					<rect id="screen" x="663" y="-94.8" class="st6" width="366" height="207.6"/>
					<polygon id="glare" class="st7" points="645.6,210.2 645.6,-110.7 979.3,-110.7 					"/>
				</g>
			</g>
		</g>
	</g>
</g>
</svg>
