<?xml version="1.0" encoding="utf-8"?>
<!-- Generator: Adobe Illustrator 18.1.1, SVG Export Plug-In . SVG Version: 6.00 Build 0)  -->
<!DOCTYPE svg PUBLIC "-//W3C//DTD SVG 1.1//EN" "http://www.w3.org/Graphics/SVG/1.1/DTD/svg11.dtd">
<svg version="1.1" id="macbook" xmlns="http://www.w3.org/2000/svg" xmlns:xlink="http://www.w3.org/1999/xlink" x="0px" y="0px"
	 viewBox="0 0 500 500" style="enable-background:new 0 0 500 500;" xml:space="preserve">
<g id="macbook_1_">
	<path id="band" style="fill:none;stroke:#BCBEC0;stroke-width:2.6968;stroke-miterlimit:10;" d="M53.31,387.8
		c-2.87-2.63-4.67-6.41-4.67-10.61V122.35c0-7.94,6.44-14.38,14.38-14.38h373.95c7.94,0,14.38,6.44,14.38,14.38v254.84
		c0,4.18-1.78,7.94-4.62,10.57L53.31,387.8z"/>
	<g>
		<defs>
			<path id="display" d="M436.97,391.58H63.03c-7.94,0-14.38-6.44-14.38-14.38V122.35c0-7.94,6.44-14.38,14.38-14.38h373.95
				c7.94,0,14.38,6.44,14.38,14.38v254.84C451.36,385.14,444.92,391.58,436.97,391.58z"/>
		</defs>
		<use xlink:href="#display"  style="overflow:visible;fill:#302E2F;"/>
		<clipPath id="display_1_">
			<use xlink:href="#display"  style="overflow:visible;"/>
		</clipPath>
		<rect id="screen" x="63.03" y="127.93" style="clip-path:url(#display_1_);fill:#F2F0E5;" width="373.95" height="232.82"/>
		<polygon id="glare" style="opacity:0.2;clip-path:url(#display_1_);fill:#FFFFFF;" points="24.96,481.28 24.96,83.3 422.94,83.3 
					"/>
	</g>
	<g>
		<defs>
			<path id="base" d="M250,392.03H55.29c-34.61,0-54.29-6.4-54.29-6.4v-3.6h498v3.6c0,0-19.68,6.4-54.29,6.4H250"/>
		</defs>
		<use xlink:href="#base"  style="overflow:visible;fill:#E6E7E8;"/>
		<clipPath id="base_1_">
			<use xlink:href="#base"  style="overflow:visible;"/>
		</clipPath>
		<rect id="shadow" x="-2" y="385.63" style="opacity:0.45;clip-path:url(#base_1_);fill:#020000;" width="504.01" height="8.63"/>
		<path id="lip" style="clip-path:url(#base_1_);fill:#B1B3B6;" d="M217.09,386.19c-11.35,0-14.94-0.56-14.94-0.56v-3.6h95.7v3.6
			c0,0-3.6,0.56-14.94,0.56H217.09z"/>
	</g>
</g>
</svg>
