<?xml version="1.0" encoding="utf-8"?>
<!-- Generator: Adobe Illustrator 18.1.1, SVG Export Plug-In . SVG Version: 6.00 Build 0)  -->
<!DOCTYPE svg PUBLIC "-//W3C//DTD SVG 1.1//EN" "http://www.w3.org/Graphics/SVG/1.1/DTD/svg11.dtd">
<svg version="1.1" id="thunder-display" xmlns="http://www.w3.org/2000/svg" xmlns:xlink="http://www.w3.org/1999/xlink" x="0px"
	 y="0px" viewBox="0 0 500 500" style="enable-background:new 0 0 500 500;" xml:space="preserve">
<g id="thunder-display_1_">
	<g>
		<defs>
			<path id="base" d="M298.62,362.49c0,0,2.13,40.48,7.64,41.53c5.51,1.04,17.34,2.75,17.34,3.57s0,1.41,0,1.41H175.8
				c0,0,0-0.6,0-1.41s11.83-2.53,17.34-3.57c5.51-1.04,7.64-41.53,7.64-41.53H298.62z"/>
		</defs>
		<use xlink:href="#base"  style="overflow:visible;fill:#E6E7E8;"/>
		<clipPath id="base_1_">
			<use xlink:href="#base"  style="overflow:visible;"/>
		</clipPath>
		
			<rect id="shadow" x="189.27" y="352.96" style="opacity:0.45;clip-path:url(#base_1_);fill:#020000;" width="124.23" height="23.22"/>
		
			<rect id="shadow_1_" x="173.37" y="407.59" style="opacity:0.45;clip-path:url(#base_1_);fill:#020000;" width="152.66" height="3.32"/>
	</g>
	<g>
		<defs>
			<path id="display" d="M462.55,363.68H37.45c-6.58,0-11.91-5.33-11.91-11.91V102.91c0-6.58,5.33-11.91,11.91-11.91h425.09
				c6.58,0,11.91,5.33,11.91,11.91v248.86C474.45,358.35,469.12,363.68,462.55,363.68z"/>
		</defs>
		<use xlink:href="#display"  style="overflow:visible;fill:#302E2F;"/>
		<clipPath id="display_1_">
			<use xlink:href="#display"  style="overflow:visible;"/>
		</clipPath>
		<rect id="screen" x="44" y="111.24" style="clip-path:url(#display_1_);fill:#F2F0E5;" width="411.99" height="232.19"/>
		<polygon id="glare" style="opacity:0.2;clip-path:url(#display_1_);fill:#FFFFFF;" points="2.1,495.29 2.1,64.87 432.52,64.87 		
			"/>
	</g>
</g>
</svg>
